<?xml version="1.0"?>
<svg width="640" height="480" xmlns="http://www.w3.org/2000/svg" xmlns:svg="http://www.w3.org/2000/svg">
 <!-- Created with SVG-edit - https://github.com/SVG-Edit/svgedit-->
 <g class="layer">
  <title>Layer 1</title>
  <path d="m161.54113,230.618527c7.351802,-7.094624 12.727749,-16.078813 17.232306,-25.181999c2.751733,-3.630772 0.146523,-6.807147 -3.601497,-3.728312c-9.632363,6.431347 -22.744225,8.636839 -33.173253,2.769365c-11.789621,-6.096412 -17.106107,-20.593024 -14.431151,-33.224504c1.69402,-12.8009 11.010788,-22.834777 21.126586,-30.042372c11.620217,-8.312606 24.168608,-15.448607 34.788813,-25.074224c4.434402,0.088895 7.771684,7.047482 12.544062,8.888877c12.671957,9.43853 27.68938,16.386054 37.668173,29.007112c5.041463,7.191608 7.914806,16.047194 8.235586,24.801062c-1.53603,11.870895 -8.614391,24.390271 -20.821101,27.770865c-10.552326,3.19283 -21.409066,-0.856334 -30.604684,-6.007753c-1.123211,-0.241055 -5.242998,-3.486781 -3.610215,-0.964361c5.497432,11.281609 11.520772,22.483994 20.24411,31.644025c0.512733,1.157386 4.533935,3.903281 2.393845,3.859656c-17.911546,0 -35.823037,0 -53.734595,0c1.914291,-1.5058 3.828654,-3.01164 5.743016,-4.51744l0,0.000004z" fill="#aaffd4" id="svg_3" stroke="#000000" stroke-dasharray="null" stroke-linecap="null" stroke-linejoin="null" stroke-width="5"/>
  <path d="m168.643384,164.831943c-1.743716,-0.315339 -2.345,-2.518253 -1.305403,-3.838038c1.379677,-2.04114 4.33094,-3.417127 6.643289,-2.129217c0.046086,-7.187668 0.019487,-14.375729 0.026536,-21.563572c5.765707,-1.163187 11.543884,-2.266551 17.311774,-3.419617c-0.01249,8.055786 -0.024982,16.111573 -0.037472,24.167358c-0.9036,2.436553 -3.823347,4.126153 -6.365701,3.370618c-1.513593,-0.45308 -1.876458,-2.40679 -1.033627,-3.603855c1.154175,-1.785649 3.302381,-3.011654 5.462024,-2.677186c0.616299,-0.062341 1.523848,0.935444 1.263358,-0.193307c0,-4.038656 0,-8.07731 0,-12.115965c-5.292676,1.065445 -10.595817,2.080282 -15.890939,3.134197c-0.024428,5.044775 0.06032,10.092009 -0.061143,15.13486c-0.382813,1.949222 -2.296077,3.30008 -4.152632,3.694224c-0.614483,0.073221 -1.24509,0.13669 -1.860063,0.0395l0.000001,-0.000001zm13.806482,-21.965867c2.719398,-0.535161 5.440075,-1.063896 8.158295,-1.604988c0.34593,-1.378121 -1.202214,-0.483129 -1.959332,-0.449486c-4.643212,0.916582 -9.289105,1.819595 -13.931607,2.73974c-0.34593,1.37812 1.202214,0.483129 1.959332,0.449484c1.924243,-0.379238 3.848741,-0.757178 5.773312,-1.13475l0.000001,0zm0,-2.412017c2.719398,-0.535161 5.440075,-1.063895 8.158295,-1.604986c0.34593,-1.378121 -1.202214,-0.483129 -1.959332,-0.449486c-4.643212,0.916582 -9.289105,1.819595 -13.931607,2.739739c-0.34593,1.378121 1.202214,0.483129 1.959332,0.449486c1.924243,-0.379239 3.848741,-0.757179 5.773312,-1.134752l0.000001,0zm0,-2.412017c2.719398,-0.535161 5.440075,-1.063896 8.158295,-1.604988c0.34593,-1.37812 -1.202214,-0.483129 -1.959332,-0.449485c-4.643212,0.916582 -9.289105,1.819596 -13.931607,2.739739c-0.34593,1.378121 1.202214,0.48313 1.959332,0.449486c1.924243,-0.379238 3.848741,-0.757179 5.773312,-1.134751l0.000001,-0.000001z" fill="#aaffd4" id="svg_4" stroke="#000000" stroke-dasharray="null" stroke-linecap="null" stroke-linejoin="null" stroke-width="5"/>
  <text fill="#000000" font-family="Cursive" font-size="24" font-weight="bold" id="svg_6" stroke="#000000" stroke-dasharray="null" stroke-linecap="null" stroke-linejoin="null" stroke-width="0" text-anchor="middle" x="184.5" xml:space="preserve" y="191.7">JJGJ</text>
 </g>
</svg>